<?xml version="1.0"?>
<svg xmlns="http://www.w3.org/2000/svg" xmlns:xlink="http://www.w3.org/1999/xlink" xmlns:svgjs="http://svgjs.com/svgjs" version="1.1" width="512" height="512" x="0" y="0" viewBox="0 0 24 24" style="enable-background:new 0 0 512 512" xml:space="preserve"><g><path xmlns="http://www.w3.org/2000/svg" d="m5 19a5.006 5.006 0 0 1 -5-5v-4a5.006 5.006 0 0 1 5-5zm2-14h10v14h-10zm4 9a1 1 0 1 0 -1 1 1 1 0 0 0 1-1zm2-4a1 1 0 1 0 1-1 1 1 0 0 0 -1 1zm0 4a1 1 0 1 0 1-1 1 1 0 0 0 -1 1zm-4-4a1 1 0 1 0 1-1 1 1 0 0 0 -1 1zm10-5v14a5.006 5.006 0 0 0 5-5v-4a5.006 5.006 0 0 0 -5-5z" fill="#3060aa" data-original="#000000"/></g></svg>
