<?xml version="1.0"?>
<svg xmlns="http://www.w3.org/2000/svg" xmlns:xlink="http://www.w3.org/1999/xlink" xmlns:svgjs="http://svgjs.com/svgjs" version="1.1" width="512" height="512" x="0" y="0" viewBox="0 0 24 24" style="enable-background:new 0 0 512 512" xml:space="preserve"><g><path xmlns="http://www.w3.org/2000/svg" d="m16 9v-2h-8v2a5.006 5.006 0 0 0 -5 5v5a5.006 5.006 0 0 0 5 5h8a5.006 5.006 0 0 0 5-5v-5a5.006 5.006 0 0 0 -5-5zm-1 8h-2v2a1 1 0 0 1 -2 0v-2h-2a1 1 0 0 1 0-2h2v-2a1 1 0 0 1 2 0v2h2a1 1 0 0 1 0 2zm.5-12h-7a2.5 2.5 0 0 1 0-5h7a2.5 2.5 0 0 1 0 5z" fill="#3060aa" data-original="#000000"/></g></svg>
