<?xml version="1.0"?>
<svg xmlns="http://www.w3.org/2000/svg" xmlns:xlink="http://www.w3.org/1999/xlink" xmlns:svgjs="http://svgjs.com/svgjs" version="1.1" width="512" height="512" x="0" y="0" viewBox="0 0 24 24" style="enable-background:new 0 0 512 512" xml:space="preserve"><g><path xmlns="http://www.w3.org/2000/svg" d="m16 2h-.171a3.006 3.006 0 0 0 -2.829-2h-2a3.006 3.006 0 0 0 -2.829 2h-.171a5.006 5.006 0 0 0 -5 5v12a5.006 5.006 0 0 0 5 5h8a5.006 5.006 0 0 0 5-5v-12a5.006 5.006 0 0 0 -5-5zm-7 5h2v-2a1 1 0 0 1 2 0v2h2a1 1 0 0 1 0 2h-2v2a1 1 0 0 1 -2 0v-2h-2a1 1 0 0 1 0-2zm3 13h-4a1 1 0 0 1 0-2h4a1 1 0 0 1 0 2zm4-4h-8a1 1 0 0 1 0-2h8a1 1 0 0 1 0 2z" fill="#3060aa" data-original="#000000"/></g></svg>
